# xmcd
#
# Track frame offsets: 
#        150
#        30534
#        46031
#        82575
#        103696
#        127475
#        153722
#        162372
#        189340
#        215107
#
# Disc length: 2927 seconds
#
# Revision: 4
# Processed by: cddbd v1.5.2PL0 Copyright (c) Steve Scherf et al.
# Submitted via: ExactAudioCopy v0.95a5
#
DISCID=820b6d0a
DTITLE=Glass Hammer - Chronometree
DYEAR=2000
DGENRE=Progressive Rock
TTITLE0=Empty Space - Revealer
TTITLE1=An Eldritch Wind
TTITLE2=Revelation - Chronometry
TTITLE3=Chronotheme
TTITLE4=A Perfect Carousel
TTITLE5=Chronos Deliverer
TTITLE6=Shapes of the Morning
TTITLE7=Chronoverture
TTITLE8=The Waiting
TTITLE9=Watching the Sky
EXTD=
EXTT0=
EXTT1=
EXTT2=
EXTT3=
EXTT4=
EXTT5=
EXTT6=
EXTT7=
EXTT8=
EXTT9=
PLAYORDER=
